<svg width="32" height="32" viewBox="0 0 32 32" fill="none" xmlns="http://www.w3.org/2000/svg">
<path d="M18.5 18.5C18.5 19.318 18.107 20.044 17.5 20.5V24C17.5 24.3978 17.342 24.7794 17.0607 25.0607C16.7794 25.342 16.3978 25.5 16 25.5C15.6022 25.5 15.2206 25.342 14.9393 25.0607C14.658 24.7794 14.5 24.3978 14.5 24V20.5C14.1591 20.2443 13.8892 19.9057 13.7159 19.5164C13.5427 19.1271 13.4718 18.6999 13.5101 18.2755C13.5484 17.8511 13.6945 17.4435 13.9346 17.0914C14.1747 16.7394 14.5008 16.4545 14.882 16.2639C15.2631 16.0734 15.6867 15.9834 16.1124 16.0025C16.5381 16.0217 16.9518 16.1493 17.3143 16.3734C17.6768 16.5974 17.976 16.9104 18.1836 17.2826C18.3911 17.6548 18.5 18.0739 18.5 18.5Z" fill="white"/>
<path d="M10 7C10 5.4087 10.6321 3.88258 11.7574 2.75736C12.8826 1.63214 14.4087 1 16 1C17.5913 1 19.1174 1.63214 20.2426 2.75736C21.3679 3.88258 22 5.4087 22 7V10H24C25.0609 10 26.0783 10.4214 26.8284 11.1716C27.5786 11.9217 28 12.9391 28 14V27C28 28.0609 27.5786 29.0783 26.8284 29.8284C26.0783 30.5786 25.0609 31 24 31H8C6.93913 31 5.92172 30.5786 5.17157 29.8284C4.42143 29.0783 4 28.0609 4 27V14C4 12.9391 4.42143 11.9217 5.17157 11.1716C5.92172 10.4214 6.93913 10 8 10H10V7ZM19.5 7C19.5 6.07174 19.1313 5.1815 18.4749 4.52513C17.8185 3.86875 16.9283 3.5 16 3.5C15.0717 3.5 14.1815 3.86875 13.5251 4.52513C12.8687 5.1815 12.5 6.07174 12.5 7V10H19.5V7ZM8 12C7.46957 12 6.96086 12.2107 6.58579 12.5858C6.21071 12.9609 6 13.4696 6 14V27C6 27.5304 6.21071 28.0391 6.58579 28.4142C6.96086 28.7893 7.46957 29 8 29H24C24.5304 29 25.0391 28.7893 25.4142 28.4142C25.7893 28.0391 26 27.5304 26 27V14C26 13.4696 25.7893 12.9609 25.4142 12.5858C25.0391 12.2107 24.5304 12 24 12H8Z" fill="white"/>
</svg>
