<svg width="34" height="20" viewBox="0 0 34 20" fill="none" xmlns="http://www.w3.org/2000/svg">
<path d="M23.5949 5.09192L25.5453 7.38358C25.7686 7.64098 25.9666 7.85271 26.0467 7.97311C26.63 8.55281 26.957 9.33628 26.9566 10.1527C26.9018 11.1158 26.2741 11.7718 25.6928 12.4734L24.3279 14.0759L23.616 14.9062C23.5904 14.9349 23.574 14.9702 23.5686 15.008C23.5632 15.0458 23.5692 15.0842 23.5858 15.1187C23.6024 15.1531 23.6288 15.182 23.6619 15.2018C23.695 15.2216 23.7332 15.2314 23.7718 15.2301H30.887C31.9738 15.2301 33.3429 16.1434 33.2629 17.53C33.2607 18.1603 33.0056 18.7641 32.5534 19.2097C32.1012 19.6554 31.4885 19.9067 30.849 19.9089H19.7067C18.9737 19.9089 17.0021 19.9878 16.4503 18.3064C16.3329 17.955 16.3169 17.5785 16.404 17.2187C16.5644 16.6866 16.8181 16.1864 17.1538 15.7407C17.7141 14.9104 18.3207 14.0801 18.9189 13.2747C19.6898 12.2202 20.4818 11.1989 21.2611 10.1236C21.2888 10.0886 21.3038 10.0455 21.3038 10.0011C21.3038 9.95678 21.2888 9.91368 21.2611 9.87868L18.4302 6.55742C18.4118 6.53334 18.3879 6.51381 18.3605 6.50037C18.3331 6.48692 18.3029 6.47992 18.2723 6.47992C18.2416 6.47992 18.2114 6.48692 18.184 6.50037C18.1566 6.51381 18.1327 6.53334 18.1143 6.55742C17.356 7.56625 14.0365 12.0333 13.3287 12.9384C12.621 13.8434 10.877 13.8932 9.9123 12.9384L5.48484 8.55848C5.45655 8.53051 5.42048 8.51145 5.38119 8.50372C5.3419 8.49599 5.30117 8.49994 5.26416 8.51506C5.22715 8.53019 5.19553 8.5558 5.17332 8.58866C5.15111 8.62152 5.1393 8.66015 5.1394 8.69963V17.1232C5.14982 17.7209 4.97021 18.3069 4.62573 18.799C4.28125 19.2911 3.78917 19.6647 3.21844 19.8674C2.85377 19.9924 2.46403 20.0298 2.08173 19.9763C1.69943 19.9228 1.33565 19.78 1.02071 19.5598C0.70578 19.3396 0.448823 19.0484 0.271268 18.7105C0.0937132 18.3726 0.000705322 17.9977 0 17.6172V2.47228C0.0253814 1.92649 0.224654 1.40247 0.569503 0.974675C0.914352 0.546881 1.38723 0.237072 1.92096 0.0892728C2.37877 -0.0309286 2.8607 -0.0297259 3.31789 0.0927586C3.77508 0.215243 4.1913 0.454656 4.52436 0.786737L11.332 7.50398C11.3523 7.52438 11.377 7.54012 11.4042 7.55008C11.4315 7.56003 11.4606 7.56396 11.4895 7.56158C11.5185 7.55921 11.5465 7.55058 11.5717 7.53632C11.5969 7.52206 11.6186 7.50252 11.6353 7.47907L16.4714 0.882224C16.6948 0.614417 16.975 0.397995 17.2923 0.248114C17.6096 0.0982325 17.9562 0.0185155 18.3081 0.0145452H30.887C31.2312 0.0151045 31.5714 0.0880957 31.8847 0.228638C32.198 0.369181 32.4773 0.574035 32.7038 0.829499C32.9303 1.08496 33.0988 1.38515 33.1982 1.70998C33.2975 2.03481 33.3253 2.37679 33.2797 2.71307C33.1911 3.2964 32.8908 3.82825 32.4345 4.20997C31.9782 4.59169 31.3969 4.79737 30.7985 4.78885H23.755C23.7196 4.7897 23.6851 4.79989 23.655 4.81835C23.625 4.83681 23.6005 4.86287 23.5842 4.89382C23.5678 4.92477 23.5602 4.95947 23.5621 4.99431C23.564 5.02915 23.5753 5.06286 23.5949 5.09192Z" fill="#E42575"/>
</svg>
